<mxfile host="app.diagrams.net" modified="2024-02-22T09:32:52.069Z" agent="Mozilla/5.0 (Macintosh; Intel Mac OS X 10_15_7) AppleWebKit/537.36 (KHTML, like Gecko) Chrome/121.0.0.0 Safari/537.36" version="23.1.1" etag="jG2-Vbqth44MVOrmflUp" type="github">
  <diagram name="第 1 页" id="JMkaJPpe8hO6UF8lTuQ2">
    <mxGraphModel>
      <root>
        <mxCell id="0" />
        <mxCell id="1" parent="0" />
      </root>
    </mxGraphModel>
  </diagram>
</mxfile>
